# xmcd CD database file
#
# Track frame offsets:
#	150
#	31170
#	63305
#	79027
#	100895
#	131707
#	149185
#	177162
#	206362
#	226952
#	254305
#	277625
#
# Disc length: 3763 seconds
#
# Revision: 0
# Processed by: cddbd v1.5PL3 Copyright (c) Steve Scherf et al.
# Submitted via: CDex 1.51
#
DISCID=a10eb10c
DTITLE=Don Grusin - Traveling Fancy
DYEAR=2004
DGENRE=Jazz
TTITLE0=All Blues
TTITLE1=Autumn Leaves
TTITLE2=Traveling Fancy
TTITLE3=Stella By Starlight
TTITLE4=Someday My Prince Will Come
TTITLE5=Road House
TTITLE6=Carribean Son
TTITLE7=Tranquil Waters - My Romance
TTITLE8=Dos Lados
TTITLE9=Moonlight In Vermont
TTITLE10=Somewere Over The Rainbow
TTITLE11=Some Day My Prince Will Come
EXTD=YEAR: 2004
EXTT0=
EXTT1=
EXTT2=
EXTT3=
EXTT4=
EXTT5=
EXTT6=
EXTT7=
EXTT8=
EXTT9=
EXTT10=
EXTT11=
PLAYORDER=
